<svg xmlns="http://www.w3.org/2000/svg" viewBox="0 0 296 296" width="296" height="296" role="img" aria-label="QR code for https://ghmoon90.github.io/geolocmemo/">
  <rect width="100%" height="100%" fill="#fff"/>
  <path fill="#111827" d="M32 32h8v8h-8zM40 32h8v8h-8zM48 32h8v8h-8zM56 32h8v8h-8zM64 32h8v8h-8zM72 32h8v8h-8zM80 32h8v8h-8zM128 32h8v8h-8zM136 32h8v8h-8zM144 32h8v8h-8zM152 32h8v8h-8zM176 32h8v8h-8zM184 32h8v8h-8zM208 32h8v8h-8zM216 32h8v8h-8zM224 32h8v8h-8zM232 32h8v8h-8zM240 32h8v8h-8zM248 32h8v8h-8zM256 32h8v8h-8zM32 40h8v8h-8zM80 40h8v8h-8zM96 40h8v8h-8zM144 40h8v8h-8zM152 40h8v8h-8zM160 40h8v8h-8zM184 40h8v8h-8zM192 40h8v8h-8zM208 40h8v8h-8zM256 40h8v8h-8zM32 48h8v8h-8zM48 48h8v8h-8zM56 48h8v8h-8zM64 48h8v8h-8zM80 48h8v8h-8zM104 48h8v8h-8zM128 48h8v8h-8zM176 48h8v8h-8zM208 48h8v8h-8zM224 48h8v8h-8zM232 48h8v8h-8zM240 48h8v8h-8zM256 48h8v8h-8zM32 56h8v8h-8zM48 56h8v8h-8zM56 56h8v8h-8zM64 56h8v8h-8zM80 56h8v8h-8zM112 56h8v8h-8zM120 56h8v8h-8zM184 56h8v8h-8zM192 56h8v8h-8zM208 56h8v8h-8zM224 56h8v8h-8zM232 56h8v8h-8zM240 56h8v8h-8zM256 56h8v8h-8zM32 64h8v8h-8zM48 64h8v8h-8zM56 64h8v8h-8zM64 64h8v8h-8zM80 64h8v8h-8zM96 64h8v8h-8zM120 64h8v8h-8zM136 64h8v8h-8zM144 64h8v8h-8zM152 64h8v8h-8zM168 64h8v8h-8zM176 64h8v8h-8zM184 64h8v8h-8zM208 64h8v8h-8zM224 64h8v8h-8zM232 64h8v8h-8zM240 64h8v8h-8zM256 64h8v8h-8zM32 72h8v8h-8zM80 72h8v8h-8zM120 72h8v8h-8zM128 72h8v8h-8zM144 72h8v8h-8zM152 72h8v8h-8zM160 72h8v8h-8zM176 72h8v8h-8zM184 72h8v8h-8zM208 72h8v8h-8zM256 72h8v8h-8zM32 80h8v8h-8zM40 80h8v8h-8zM48 80h8v8h-8zM56 80h8v8h-8zM64 80h8v8h-8zM72 80h8v8h-8zM80 80h8v8h-8zM96 80h8v8h-8zM112 80h8v8h-8zM128 80h8v8h-8zM144 80h8v8h-8zM160 80h8v8h-8zM176 80h8v8h-8zM192 80h8v8h-8zM208 80h8v8h-8zM216 80h8v8h-8zM224 80h8v8h-8zM232 80h8v8h-8zM240 80h8v8h-8zM248 80h8v8h-8zM256 80h8v8h-8zM104 88h8v8h-8zM120 88h8v8h-8zM128 88h8v8h-8zM136 88h8v8h-8zM144 88h8v8h-8zM152 88h8v8h-8zM160 88h8v8h-8zM168 88h8v8h-8zM184 88h8v8h-8zM32 96h8v8h-8zM48 96h8v8h-8zM64 96h8v8h-8zM80 96h8v8h-8zM120 96h8v8h-8zM144 96h8v8h-8zM160 96h8v8h-8zM168 96h8v8h-8zM184 96h8v8h-8zM192 96h8v8h-8zM224 96h8v8h-8zM248 96h8v8h-8zM40 104h8v8h-8zM160 104h8v8h-8zM192 104h8v8h-8zM200 104h8v8h-8zM208 104h8v8h-8zM232 104h8v8h-8zM256 104h8v8h-8zM32 112h8v8h-8zM56 112h8v8h-8zM64 112h8v8h-8zM72 112h8v8h-8zM80 112h8v8h-8zM112 112h8v8h-8zM120 112h8v8h-8zM136 112h8v8h-8zM176 112h8v8h-8zM192 112h8v8h-8zM200 112h8v8h-8zM216 112h8v8h-8zM240 112h8v8h-8zM248 112h8v8h-8zM256 112h8v8h-8zM32 120h8v8h-8zM48 120h8v8h-8zM64 120h8v8h-8zM72 120h8v8h-8zM88 120h8v8h-8zM104 120h8v8h-8zM112 120h8v8h-8zM128 120h8v8h-8zM152 120h8v8h-8zM160 120h8v8h-8zM168 120h8v8h-8zM176 120h8v8h-8zM184 120h8v8h-8zM192 120h8v8h-8zM208 120h8v8h-8zM224 120h8v8h-8zM248 120h8v8h-8zM48 128h8v8h-8zM56 128h8v8h-8zM80 128h8v8h-8zM88 128h8v8h-8zM96 128h8v8h-8zM104 128h8v8h-8zM120 128h8v8h-8zM152 128h8v8h-8zM160 128h8v8h-8zM168 128h8v8h-8zM200 128h8v8h-8zM208 128h8v8h-8zM232 128h8v8h-8zM248 128h8v8h-8zM256 128h8v8h-8zM32 136h8v8h-8zM64 136h8v8h-8zM88 136h8v8h-8zM96 136h8v8h-8zM104 136h8v8h-8zM120 136h8v8h-8zM128 136h8v8h-8zM136 136h8v8h-8zM160 136h8v8h-8zM192 136h8v8h-8zM200 136h8v8h-8zM208 136h8v8h-8zM232 136h8v8h-8zM256 136h8v8h-8zM32 144h8v8h-8zM56 144h8v8h-8zM64 144h8v8h-8zM80 144h8v8h-8zM112 144h8v8h-8zM128 144h8v8h-8zM144 144h8v8h-8zM168 144h8v8h-8zM200 144h8v8h-8zM216 144h8v8h-8zM224 144h8v8h-8zM232 144h8v8h-8zM248 144h8v8h-8zM256 144h8v8h-8zM40 152h8v8h-8zM48 152h8v8h-8zM56 152h8v8h-8zM64 152h8v8h-8zM72 152h8v8h-8zM88 152h8v8h-8zM112 152h8v8h-8zM120 152h8v8h-8zM128 152h8v8h-8zM136 152h8v8h-8zM144 152h8v8h-8zM168 152h8v8h-8zM176 152h8v8h-8zM184 152h8v8h-8zM200 152h8v8h-8zM208 152h8v8h-8zM224 152h8v8h-8zM232 152h8v8h-8zM248 152h8v8h-8zM32 160h8v8h-8zM48 160h8v8h-8zM64 160h8v8h-8zM80 160h8v8h-8zM96 160h8v8h-8zM112 160h8v8h-8zM120 160h8v8h-8zM144 160h8v8h-8zM160 160h8v8h-8zM168 160h8v8h-8zM176 160h8v8h-8zM184 160h8v8h-8zM192 160h8v8h-8zM208 160h8v8h-8zM232 160h8v8h-8zM248 160h8v8h-8zM256 160h8v8h-8zM40 168h8v8h-8zM56 168h8v8h-8zM72 168h8v8h-8zM112 168h8v8h-8zM144 168h8v8h-8zM160 168h8v8h-8zM192 168h8v8h-8zM208 168h8v8h-8zM232 168h8v8h-8zM240 168h8v8h-8zM256 168h8v8h-8zM32 176h8v8h-8zM48 176h8v8h-8zM56 176h8v8h-8zM80 176h8v8h-8zM112 176h8v8h-8zM128 176h8v8h-8zM136 176h8v8h-8zM168 176h8v8h-8zM224 176h8v8h-8zM248 176h8v8h-8zM256 176h8v8h-8zM40 184h8v8h-8zM56 184h8v8h-8zM64 184h8v8h-8zM72 184h8v8h-8zM96 184h8v8h-8zM128 184h8v8h-8zM160 184h8v8h-8zM168 184h8v8h-8zM176 184h8v8h-8zM192 184h8v8h-8zM216 184h8v8h-8zM224 184h8v8h-8zM232 184h8v8h-8zM248 184h8v8h-8zM32 192h8v8h-8zM48 192h8v8h-8zM72 192h8v8h-8zM80 192h8v8h-8zM96 192h8v8h-8zM112 192h8v8h-8zM128 192h8v8h-8zM152 192h8v8h-8zM160 192h8v8h-8zM168 192h8v8h-8zM192 192h8v8h-8zM200 192h8v8h-8zM208 192h8v8h-8zM216 192h8v8h-8zM224 192h8v8h-8zM96 200h8v8h-8zM120 200h8v8h-8zM136 200h8v8h-8zM160 200h8v8h-8zM168 200h8v8h-8zM184 200h8v8h-8zM192 200h8v8h-8zM224 200h8v8h-8zM240 200h8v8h-8zM248 200h8v8h-8zM256 200h8v8h-8zM32 208h8v8h-8zM40 208h8v8h-8zM48 208h8v8h-8zM56 208h8v8h-8zM64 208h8v8h-8zM72 208h8v8h-8zM80 208h8v8h-8zM120 208h8v8h-8zM128 208h8v8h-8zM144 208h8v8h-8zM160 208h8v8h-8zM168 208h8v8h-8zM184 208h8v8h-8zM192 208h8v8h-8zM208 208h8v8h-8zM224 208h8v8h-8zM232 208h8v8h-8zM248 208h8v8h-8zM256 208h8v8h-8zM32 216h8v8h-8zM80 216h8v8h-8zM112 216h8v8h-8zM128 216h8v8h-8zM136 216h8v8h-8zM144 216h8v8h-8zM152 216h8v8h-8zM160 216h8v8h-8zM168 216h8v8h-8zM176 216h8v8h-8zM192 216h8v8h-8zM224 216h8v8h-8zM232 216h8v8h-8zM248 216h8v8h-8zM256 216h8v8h-8zM32 224h8v8h-8zM48 224h8v8h-8zM56 224h8v8h-8zM64 224h8v8h-8zM80 224h8v8h-8zM96 224h8v8h-8zM104 224h8v8h-8zM112 224h8v8h-8zM128 224h8v8h-8zM144 224h8v8h-8zM152 224h8v8h-8zM160 224h8v8h-8zM168 224h8v8h-8zM192 224h8v8h-8zM200 224h8v8h-8zM208 224h8v8h-8zM216 224h8v8h-8zM224 224h8v8h-8zM248 224h8v8h-8zM256 224h8v8h-8zM32 232h8v8h-8zM48 232h8v8h-8zM56 232h8v8h-8zM64 232h8v8h-8zM80 232h8v8h-8zM104 232h8v8h-8zM120 232h8v8h-8zM136 232h8v8h-8zM144 232h8v8h-8zM160 232h8v8h-8zM168 232h8v8h-8zM184 232h8v8h-8zM192 232h8v8h-8zM200 232h8v8h-8zM216 232h8v8h-8zM224 232h8v8h-8zM240 232h8v8h-8zM248 232h8v8h-8zM256 232h8v8h-8zM32 240h8v8h-8zM48 240h8v8h-8zM56 240h8v8h-8zM64 240h8v8h-8zM80 240h8v8h-8zM96 240h8v8h-8zM120 240h8v8h-8zM136 240h8v8h-8zM184 240h8v8h-8zM200 240h8v8h-8zM216 240h8v8h-8zM224 240h8v8h-8zM232 240h8v8h-8zM256 240h8v8h-8zM32 248h8v8h-8zM80 248h8v8h-8zM112 248h8v8h-8zM128 248h8v8h-8zM144 248h8v8h-8zM160 248h8v8h-8zM168 248h8v8h-8zM176 248h8v8h-8zM184 248h8v8h-8zM192 248h8v8h-8zM200 248h8v8h-8zM224 248h8v8h-8zM248 248h8v8h-8zM32 256h8v8h-8zM40 256h8v8h-8zM48 256h8v8h-8zM56 256h8v8h-8zM64 256h8v8h-8zM72 256h8v8h-8zM80 256h8v8h-8zM96 256h8v8h-8zM104 256h8v8h-8zM112 256h8v8h-8zM120 256h8v8h-8zM136 256h8v8h-8zM144 256h8v8h-8zM152 256h8v8h-8zM160 256h8v8h-8zM168 256h8v8h-8zM192 256h8v8h-8zM208 256h8v8h-8zM216 256h8v8h-8zM224 256h8v8h-8zM248 256h8v8h-8zM256 256h8v8h-8z"/>
</svg>
